
<svg xmlns="http://www.w3.org/2000/svg" version="1.1" xmlns:xlink="http://www.w3.org/1999/xlink" preserveAspectRatio="none" x="0px" y="0px" width="550px" height="400px" viewBox="0 0 550 400">
<defs>
<g id="Layer0_0_MEMBER_0_FILL">
<path fill="#D0F4F7" stroke="none" d="
M 2240 560
L 1680 560 1680 1120 2240 1120 2240 560 Z"/>
</g>

<g id="Layer0_0_MEMBER_1_FILL">
<path fill="#DCFAFC" stroke="none" d="
M 2043.4 790.15
Q 2035.9 783.1 2025.55 783.5 2015.2 783.85 2008.2 791.55 2006.2 793.5 2004.9 795.8 1992.05 788.85 1976.4 789.5 1959.8 790.1 1947.05 798.95 1932.4 788.7 1913.5 789.45 1892.4 790.3 1877.45 804.4
L 1877.4 804.35
Q 1860.45 788.8 1837.3 789.65 1829.85 789.95 1823.1 791.95 1818.95 778.25 1807.6 767.75 1803.65 764.1 1799.35 761.35 1785.3 752.3 1767.6 753.05 1744.45 753.95 1728.75 770.8 1728.65 770.9 1728.55 771.05 1727.7 770.15 1726.85 769.25 1725.25 767.65 1723.6 766.25 1708.65 753.35 1688.3 753.35 1684 753.35 1679.9 753.95
L 1679.9 1075 2239.85 1075 2239.9 753.7
Q 2222.05 756.8 2209.25 770.65 2203.65 776.7 2200.15 783.6 2188.95 778.7 2175.65 779.2 2160.6 779.8 2148.75 787.15 2147.05 785.25 2145.15 783.5 2124.75 764.65 2097 765.7 2069.3 766.8 2050.45 787.15 2048 789.85 2045.8 792.6 2044.7 791.35 2043.4 790.15 Z"/>
</g>

<g id="Layer0_0_MEMBER_2_FILL">
<path fill="#E7FDFF" stroke="none" d="
M 1894.35 831.5
Q 1884 831.1 1876.5 838.15 1875.2 839.35 1874.1 840.6 1871.9 837.85 1869.45 835.15 1850.6 814.8 1822.9 813.7 1795.15 812.65 1774.75 831.5 1772.85 833.25 1771.15 835.15 1759.3 827.8 1744.25 827.2 1730.95 826.7 1719.75 831.6 1716.25 824.7 1710.65 818.65 1697.85 804.8 1680 801.7
L 1680.05 976.95 2240 976.95 2240 801.95
Q 2235.9 801.35 2231.6 801.35 2211.25 801.35 2196.3 814.25 2194.65 815.65 2193.05 817.25 2192.2 818.15 2191.35 819.05 2191.25 818.9 2191.15 818.8 2175.45 801.95 2152.3 801.05 2134.6 800.3 2120.55 809.35 2116.25 812.1 2112.3 815.75 2100.95 826.25 2096.8 839.95 2090.05 837.95 2082.6 837.65 2059.45 836.8 2042.5 852.35
L 2042.45 852.4
Q 2027.5 838.3 2006.4 837.45 1987.5 836.7 1972.85 846.95 1960.1 838.1 1943.5 837.5 1927.85 836.85 1915 843.8 1913.7 841.5 1911.7 839.55 1904.7 831.85 1894.35 831.5 Z"/>
</g>

<g id="Layer0_0_MEMBER_3_FILL">
<path fill="#EFEBDC" stroke="none" d="
M 2184.35 907
L 2184.35 918.9 2196.55 918.9 2196.55 907 2184.35 907
M 2161.35 884.55
L 2143.5 884.55 2143.5 992.95 2161.35 992.95 2161.35 884.55
M 1768.4 872.55
L 1750.55 872.55 1750.55 980.95 1768.4 980.95 1768.4 872.55
M 1858.35 834.55
L 1840.5 834.55 1840.5 942.95 1858.35 942.95 1858.35 834.55 Z"/>

<path fill="#A06D3D" stroke="none" d="
M 2176.65 905.9
Q 2180.1 906.7 2184.35 907
L 2196.55 907
Q 2200.85 906.7 2204.25 905.9 2209.2 904.8 2209.85 903.25 2209.95 903 2209.95 902.75
L 2209.95 902.7
Q 2209.9 901.1 2209.45 899.6 2208.2 895.9 2204.25 893 2198.55 888.9 2190.45 888.9 2182.4 888.9 2176.65 893 2172.7 895.9 2171.5 899.6 2171 901.1 2170.95 902.7
L 2170.95 902.75
Q 2170.95 903 2171.05 903.25 2171.7 904.8 2176.65 905.9
M 2132.25 864.1
Q 2126.5 868.35 2124.75 873.75 2124 875.95 2123.95 878.25
L 2123.95 878.35
Q 2123.95 878.7 2124.1 879.05 2125.05 881.35 2132.25 882.95 2137.3 884.1 2143.5 884.55
L 2161.35 884.55
Q 2167.65 884.1 2172.6 882.95 2179.85 881.35 2180.8 879.05 2180.95 878.7 2180.95 878.35
L 2180.95 878.25
Q 2180.85 875.95 2180.2 873.75 2178.4 868.35 2172.6 864.1 2164.3 858.1 2152.45 858.1 2140.65 858.1 2132.25 864.1
M 1788 866.25
Q 1787.9 863.95 1787.25 861.75 1785.45 856.35 1779.65 852.1 1771.35 846.1 1759.5 846.1 1747.7 846.1 1739.3 852.1 1733.55 856.35 1731.8 861.75 1731.05 863.95 1731 866.25
L 1731 866.35
Q 1731 866.7 1731.15 867.05 1732.1 869.35 1739.3 870.95 1744.35 872.1 1750.55 872.55
L 1768.4 872.55
Q 1774.7 872.1 1779.65 870.95 1786.9 869.35 1787.85 867.05 1788 866.7 1788 866.35
L 1788 866.25
M 1877.2 823.75
Q 1875.4 818.35 1869.6 814.1 1861.3 808.1 1849.45 808.1 1837.65 808.1 1829.25 814.1 1823.5 818.35 1821.75 823.75 1821 825.95 1820.95 828.25
L 1820.95 828.35
Q 1820.95 828.7 1821.1 829.05 1822.05 831.35 1829.25 832.95 1834.3 834.1 1840.5 834.55
L 1858.35 834.55
Q 1864.65 834.1 1869.6 832.95 1876.85 831.35 1877.8 829.05 1877.95 828.7 1877.95 828.35
L 1877.95 828.25
Q 1877.85 825.95 1877.2 823.75 Z"/>
</g>

<g id="Layer0_0_MEMBER_4_FILL">
<path fill="#C58F5C" stroke="none" d="
M 1862.55 914.3
Q 1835.7 908.5 1807.75 905.6 1767.5 901.65 1728.4 907.35 1704.25 910.95 1680 914.3
L 1680 1120 2240 1120 2240 915.05
Q 2215.2 918.5 2190.7 923.05 2152.6 930.05 2114 935.65 2075.8 941.2 2036.15 941.85 1997.95 942.3 1960.6 936.1 1922.5 929.85 1886.3 920.05 1874.55 916.9 1862.55 914.3 Z"/>

<path fill="#E5B180" stroke="none" d="
M 1807.75 898.65
Q 1835.7 901.65 1862.55 907.65 1874.55 910.3 1886.3 913.55 1922.5 923.7 1960.6 930.15 1997.95 936.55 2036.15 936.1 2075.8 935.4 2114 929.65 2152.6 923.9 2190.7 916.65 2215.2 911.95 2240 908.4
L 2240 903.65
Q 2215.2 907.3 2190.7 912.1 2152.6 919.5 2114 925.4 2075.8 931.25 2036.15 931.95 1997.95 932.45 1960.6 925.9 1922.5 919.3 1886.3 908.9 1874.55 905.6 1862.55 902.9 1835.7 896.75 1807.75 893.7 1767.5 889.5 1728.4 895.55 1704.25 899.3 1680 902.9
L 1680 907.65
Q 1704.25 904.15 1728.4 900.45 1767.5 894.55 1807.75 898.65 Z"/>

<path fill="#BD8958" stroke="none" d="
M 1862.55 907.65
Q 1835.7 901.65 1807.75 898.65 1767.5 894.55 1728.4 900.45 1704.25 904.15 1680 907.65
L 1680 914.3
Q 1704.25 910.95 1728.4 907.35 1767.5 901.65 1807.75 905.6 1835.7 908.5 1862.55 914.3 1874.55 916.9 1886.3 920.05 1922.5 929.85 1960.6 936.1 1997.95 942.3 2036.15 941.85 2075.8 941.2 2114 935.65 2152.6 930.05 2190.7 923.05 2215.2 918.5 2240 915.05
L 2240 908.4
Q 2215.2 911.95 2190.7 916.65 2152.6 923.9 2114 929.65 2075.8 935.4 2036.15 936.1 1997.95 936.55 1960.6 930.15 1922.5 923.7 1886.3 913.55 1874.55 910.3 1862.55 907.65 Z"/>
</g>

<g id="Layer0_1_MEMBER_0_FILL">
<path fill="#D0F4F7" stroke="none" d="
M 1680 1120
L 1680 560 1120 560 1120 1120 1680 1120 Z"/>
</g>

<g id="Layer0_1_MEMBER_1_FILL">
<path fill="#DCFAFC" stroke="none" d="
M 1483.4 790.15
Q 1475.9 783.1 1465.55 783.5 1455.2 783.85 1448.2 791.55 1446.2 793.5 1444.9 795.8 1432.05 788.85 1416.4 789.5 1399.8 790.1 1387.05 798.95 1372.4 788.7 1353.5 789.45 1332.4 790.3 1317.45 804.4
L 1317.4 804.35
Q 1300.45 788.8 1277.3 789.65 1269.85 789.95 1263.1 791.95 1258.95 778.25 1247.6 767.75 1243.65 764.1 1239.35 761.35 1225.3 752.3 1207.6 753.05 1184.45 753.95 1168.75 770.8 1168.65 770.9 1168.55 771.05 1167.7 770.15 1166.85 769.25 1165.25 767.65 1163.6 766.25 1148.65 753.35 1128.3 753.35 1124 753.35 1119.9 753.95
L 1119.9 1075 1679.85 1075 1679.9 753.7
Q 1662.05 756.8 1649.25 770.65 1643.65 776.7 1640.15 783.6 1628.95 778.7 1615.65 779.2 1600.6 779.8 1588.75 787.15 1587.05 785.25 1585.15 783.5 1564.75 764.65 1537 765.7 1509.3 766.8 1490.45 787.15 1488 789.85 1485.8 792.6 1484.7 791.35 1483.4 790.15 Z"/>
</g>

<g id="Layer0_1_MEMBER_2_FILL">
<path fill="#E7FDFF" stroke="none" d="
M 1680 801.95
Q 1675.9 801.35 1671.6 801.35 1651.25 801.35 1636.3 814.25 1634.65 815.65 1633.05 817.25 1632.2 818.15 1631.35 819.05 1631.25 818.9 1631.15 818.8 1615.45 801.95 1592.3 801.05 1574.6 800.3 1560.55 809.35 1556.25 812.1 1552.3 815.75 1540.95 826.25 1536.8 839.95 1530.05 837.95 1522.6 837.65 1499.45 836.8 1482.5 852.35
L 1482.45 852.4
Q 1467.5 838.3 1446.4 837.45 1427.5 836.7 1412.85 846.95 1400.1 838.1 1383.5 837.5 1367.85 836.85 1355 843.8 1353.7 841.5 1351.7 839.55 1344.7 831.85 1334.35 831.5 1324 831.1 1316.5 838.15 1315.2 839.35 1314.1 840.6 1311.9 837.85 1309.45 835.15 1290.6 814.8 1262.9 813.7 1235.15 812.65 1214.75 831.5 1212.85 833.25 1211.15 835.15 1199.3 827.8 1184.25 827.2 1170.95 826.7 1159.75 831.6 1156.25 824.7 1150.65 818.65 1137.85 804.8 1120 801.7
L 1120.05 976.95 1680 976.95 1680 801.95 Z"/>
</g>

<g id="Layer0_1_MEMBER_3_FILL">
<path fill="#80BE1F" stroke="none" d="
M 1204.95 881.5
Q 1200.35 876.95 1193.9 876.95
L 1193.85 876.95
Q 1187.45 876.95 1182.85 881.5 1179.1 885.2 1178.4 890.15 1178.3 891.05 1178.25 892
L 1178.25 945.9 1209.5 945.9 1209.5 892.4
Q 1209.5 892.3 1209.5 892.2
L 1209.5 891.85
Q 1209.3 886.45 1205.8 882.45
L 1205.8 882.4
Q 1205.4 881.95 1204.95 881.5
M 1365.45 908.85
Q 1365.25 903.45 1361.75 899.45
L 1361.75 899.4
Q 1361.35 898.95 1360.9 898.5 1356.3 893.95 1349.85 893.95
L 1349.8 893.95
Q 1343.4 893.95 1338.8 898.5 1335.05 902.2 1334.35 907.15 1334.25 908.05 1334.2 909
L 1334.2 962.9 1365.45 962.9 1365.45 909.4
Q 1365.45 909.3 1365.45 909.2
L 1365.45 908.85
M 1327.7 859.8
Q 1327.55 854.4 1324 850.4
L 1324 850.35
Q 1323.6 849.9 1323.15 849.45 1318.55 844.95 1312.1 844.95 1305.65 844.95 1301.05 849.45 1297.3 853.15 1296.65 858.1 1296.5 859.05 1296.45 859.95
L 1296.45 939.95 1327.7 939.95 1327.7 860.35
Q 1327.7 860.25 1327.7 860.15
L 1327.7 859.8
M 1568.45 835.8
Q 1568.2 827.5 1562.8 821.35
L 1562.75 821.3
Q 1562.15 820.6 1561.45 819.9 1554.4 812.95 1544.5 812.95
L 1544.45 812.95
Q 1534.55 812.95 1527.5 819.9 1521.75 825.6 1520.7 833.2 1520.5 834.6 1520.45 836.05
L 1520.45 958.95 1568.45 958.95 1568.45 836.65
Q 1568.45 836.5 1568.45 836.35
L 1568.45 835.8
M 1626.45 876.65
Q 1626.45 876.5 1626.45 876.35
L 1626.45 875.8
Q 1626.2 867.5 1620.8 861.35
L 1620.75 861.3
Q 1620.15 860.6 1619.45 859.9 1612.4 852.95 1602.5 852.95
L 1602.45 852.95
Q 1592.55 852.95 1585.5 859.9 1579.75 865.6 1578.7 873.2 1578.5 874.6 1578.45 876.05
L 1578.45 958.9 1626.45 958.9 1626.45 876.65 Z"/>
</g>

<g id="Layer0_1_MEMBER_4_FILL">
<path fill="#A0DB44" stroke="none" d="
M 1680 915.05
Q 1655.2 918.5 1630.7 923.05 1592.6 930.05 1554 935.65 1515.8 941.2 1476.15 941.85 1437.95 942.3 1400.6 936.1 1362.5 929.85 1326.3 920.05 1314.55 916.9 1302.55 914.3 1275.7 908.5 1247.75 905.6 1207.5 901.65 1168.4 907.35 1144.25 910.95 1120 914.3
L 1120 1120 1680 1120 1680 915.05 Z"/>

<path fill="#95CB41" stroke="none" d="
M 1680 915.05
L 1680 908.4
Q 1655.2 911.95 1630.7 916.65 1592.6 923.9 1554 929.65 1515.8 935.4 1476.15 936.1 1437.95 936.55 1400.6 930.15 1362.5 923.7 1326.3 913.55 1314.55 910.3 1302.55 907.65 1275.7 901.65 1247.75 898.65 1207.5 894.55 1168.4 900.45 1144.25 904.15 1120 907.65
L 1120 914.3
Q 1144.25 910.95 1168.4 907.35 1207.5 901.65 1247.75 905.6 1275.7 908.5 1302.55 914.3 1314.55 916.9 1326.3 920.05 1362.5 929.85 1400.6 936.1 1437.95 942.3 1476.15 941.85 1515.8 941.2 1554 935.65 1592.6 930.05 1630.7 923.05 1655.2 918.5 1680 915.05 Z"/>

<path fill="#CAF38A" stroke="none" d="
M 1680 908.4
L 1680 903.65
Q 1655.2 907.3 1630.7 912.1 1592.6 919.5 1554 925.4 1515.8 931.25 1476.15 931.95 1437.95 932.45 1400.6 925.9 1362.5 919.3 1326.3 908.9 1314.55 905.6 1302.55 902.9 1275.7 896.75 1247.75 893.7 1207.5 889.5 1168.4 895.55 1144.25 899.3 1120 902.9
L 1120 907.65
Q 1144.25 904.15 1168.4 900.45 1207.5 894.55 1247.75 898.65 1275.7 901.65 1302.55 907.65 1314.55 910.3 1326.3 913.55 1362.5 923.7 1400.6 930.15 1437.95 936.55 1476.15 936.1 1515.8 935.4 1554 929.65 1592.6 923.9 1630.7 916.65 1655.2 911.95 1680 908.4 Z"/>
</g>

<g id="Layer0_2_MEMBER_0_FILL">
<path fill="#D0F4F7" stroke="none" d="
M 1120 560
L 560 560 560 1120 1120 1120 1120 560 Z"/>
</g>

<g id="Layer0_2_MEMBER_1_FILL">
<path fill="#DCFAFC" stroke="none" d="
M 687.6 767.75
Q 683.65 764.1 679.35 761.35 665.3 752.3 647.6 753.05 624.45 753.95 608.75 770.8 608.65 770.9 608.55 771.05 607.7 770.15 606.85 769.25 605.25 767.65 603.6 766.25 588.65 753.35 568.3 753.35 564 753.35 559.9 753.95
L 559.9 1075 1119.85 1075 1119.9 753.7
Q 1102.05 756.8 1089.25 770.65 1083.65 776.7 1080.15 783.6 1068.95 778.7 1055.65 779.2 1040.6 779.8 1028.75 787.15 1027.05 785.25 1025.15 783.5 1004.75 764.65 977 765.7 949.3 766.8 930.45 787.15 928 789.85 925.8 792.6 924.7 791.35 923.4 790.15 915.9 783.1 905.55 783.5 895.2 783.85 888.2 791.55 886.2 793.5 884.9 795.8 872.05 788.85 856.4 789.5 839.8 790.1 827.05 798.95 812.4 788.7 793.5 789.45 772.4 790.3 757.45 804.4
L 757.4 804.35
Q 740.45 788.8 717.3 789.65 709.85 789.95 703.1 791.95 698.95 778.25 687.6 767.75 Z"/>
</g>

<g id="Layer0_2_MEMBER_2_FILL">
<path fill="#E7FDFF" stroke="none" d="
M 599.75 831.6
Q 596.25 824.7 590.65 818.65 577.85 804.8 560 801.7
L 560.05 976.95 1120 976.95 1120 801.95
Q 1115.9 801.35 1111.6 801.35 1091.25 801.35 1076.3 814.25 1074.65 815.65 1073.05 817.25 1072.2 818.15 1071.35 819.05 1071.25 818.9 1071.15 818.8 1055.45 801.95 1032.3 801.05 1014.6 800.3 1000.55 809.35 996.25 812.1 992.3 815.75 980.95 826.25 976.8 839.95 970.05 837.95 962.6 837.65 939.45 836.8 922.5 852.35
L 922.45 852.4
Q 907.5 838.3 886.4 837.45 867.5 836.7 852.85 846.95 840.1 838.1 823.5 837.5 807.85 836.85 795 843.8 793.7 841.5 791.7 839.55 784.7 831.85 774.35 831.5 764 831.1 756.5 838.15 755.2 839.35 754.1 840.6 751.9 837.85 749.45 835.15 730.6 814.8 702.9 813.7 675.15 812.65 654.75 831.5 652.85 833.25 651.15 835.15 639.3 827.8 624.25 827.2 610.95 826.7 599.75 831.6 Z"/>
</g>

<g id="Layer0_2_MEMBER_3_FILL">
<path fill="#C4EDF0" stroke="none" d="
M 608.4 907.35
Q 584.25 910.95 560 914.3
L 560 1120 1120 1120 1120 915.05
Q 1095.2 918.5 1070.7 923.05 1032.6 930.05 994 935.65 955.8 941.2 916.15 941.85 877.95 942.3 840.6 936.1 802.5 929.85 766.3 920.05 754.55 916.9 742.55 914.3 715.7 908.5 687.75 905.6 647.5 901.65 608.4 907.35 Z"/>
</g>

<g id="Layer0_2_MEMBER_4_FILL">
<path fill="#80BE1F" stroke="none" d="
M 707.95 837.95
Q 707.85 834.3 705.25 831.75 702.65 829.15 698.85 829.15 695.15 829.15 692.45 831.75 689.85 834.3 689.8 837.95
L 689.8 867.85 689.2 867.85
Q 688.65 867.85 688.15 867.45
L 688.15 867.35
Q 687.6 866.9 687.6 866.5
L 687.6 853.25
Q 687.6 851.05 686.05 849.4 684.5 847.9 682.35 847.9 680.15 847.9 678.5 849.4 677 851.05 677 853.25
L 677 868.4
Q 677 873.3 680.3 876.9 680.5 877.1 680.9 877.4 684.35 880.65 689.2 880.65
L 689.8 880.65 689.8 909 707.95 909 707.95 870.05 708.2 870.05
Q 713.2 870.05 716.6 866.7 716.9 866.5 717.2 866.2 720.55 862.6 720.55 857.8
L 720.55 842.55
Q 720.55 840.35 719 838.8 717.4 837.2 715.2 837.2 713 837.2 711.45 838.8 709.85 840.35 709.85 842.55
L 709.85 855.8
Q 709.85 856.2 709.35 856.65
L 709.25 856.75
Q 708.9 857.15 708.2 857.15
L 707.95 857.15 707.95 837.95
M 935.7 900.5
Q 934.3 899.15 932.35 899.15 930.35 899.15 929 900.5 927.65 901.85 927.6 903.75
L 927.6 913.8 927.45 913.8
Q 927.1 913.8 926.9 913.6
L 926.85 913.55
Q 926.6 913.3 926.6 913.1
L 926.6 906.15
Q 926.6 905 925.75 904.2 924.95 903.35 923.8 903.35 922.65 903.35 921.8 904.2 921 905 921 906.15
L 921 914.15
Q 921 916.65 922.75 918.55 922.9 918.7 923.05 918.8 924.85 920.55 927.45 920.55
L 927.6 920.55 927.6 953 937.1 953 937.1 926.1 937.4 926.1
Q 939.95 926.1 941.75 924.4 941.95 924.25 942.05 924.15 943.8 922.25 943.8 919.7
L 943.8 911.75
Q 943.8 910.6 943 909.75 942.15 908.95 941 908.95 939.85 908.95 939.05 909.75 938.25 910.6 938.25 911.75
L 938.25 918.7
Q 938.25 918.9 937.95 919.15
L 937.95 919.2
Q 937.7 919.4 937.4 919.4
L 937.1 919.4 937.1 903.75
Q 937.05 901.85 935.7 900.5
M 1060.85 890.25
L 1060.85 875.95
Q 1060.85 873.9 1059.4 872.45 1057.9 870.95 1055.85 870.95 1053.8 870.95 1052.35 872.45 1050.85 873.9 1050.85 875.95
L 1050.85 888.4
Q 1050.85 888.8 1050.45 889.25
L 1050.35 889.3
Q 1049.95 889.7 1049.35 889.7
L 1049.05 889.7 1049.05 871.7
Q 1048.95 868.3 1046.6 865.9 1044.1 863.45 1040.6 863.45 1037.1 863.45 1034.6 865.9 1032.15 868.3 1032.05 871.7
L 1032.05 899.7 1031.55 899.7
Q 1030.95 899.7 1030.55 899.3
L 1030.5 899.25
Q 1030.05 898.8 1030.05 898.4
L 1030.05 885.95
Q 1030.05 883.9 1028.6 882.45
L 1028.55 882.45
Q 1027.1 880.95 1025.05 880.95 1023 880.95 1021.5 882.45 1020.05 883.9 1020.05 885.95
L 1020.05 900.25
Q 1020.05 904.75 1023.2 908.15 1023.4 908.4 1023.7 908.6 1026.95 911.7 1031.55 911.7
L 1032.05 911.7 1032.05 944.45 1049.05 944.45 1049.05 901.7 1049.35 901.7
Q 1053.95 901.7 1057.25 898.6 1057.5 898.4 1057.7 898.15 1060.85 894.75 1060.85 890.25 Z"/>
</g>

<g id="Layer0_2_MEMBER_5_FILL">
<path fill="#E7DFC2" stroke="none" d="
M 608.4 907.35
Q 584.25 910.95 560 914.3
L 560 1120 1120 1120 1120 915.05
Q 1095.2 918.5 1070.7 923.05 1032.6 930.05 994 935.65 955.8 941.2 916.15 941.85 877.95 942.3 840.6 936.1 802.5 929.85 766.3 920.05 754.55 916.9 742.55 914.3 715.7 908.5 687.75 905.6 647.5 901.65 608.4 907.35 Z"/>

<path fill="#DBD3B5" stroke="none" d="
M 560 907.65
L 560 914.3
Q 584.25 910.95 608.4 907.35 647.5 901.65 687.75 905.6 715.7 908.5 742.55 914.3 754.55 916.9 766.3 920.05 802.5 929.85 840.6 936.1 877.95 942.3 916.15 941.85 955.8 941.2 994 935.65 1032.6 930.05 1070.7 923.05 1095.2 918.5 1120 915.05
L 1120 908.4
Q 1095.2 911.95 1070.7 916.65 1032.6 923.9 994 929.65 955.8 935.4 916.15 936.1 877.95 936.55 840.6 930.15 802.5 923.7 766.3 913.55 754.55 910.3 742.55 907.65 715.7 901.65 687.75 898.65 647.5 894.55 608.4 900.45 584.25 904.15 560 907.65 Z"/>

<path fill="#F0EAD4" stroke="none" d="
M 560 902.9
L 560 907.65
Q 584.25 904.15 608.4 900.45 647.5 894.55 687.75 898.65 715.7 901.65 742.55 907.65 754.55 910.3 766.3 913.55 802.5 923.7 840.6 930.15 877.95 936.55 916.15 936.1 955.8 935.4 994 929.65 1032.6 923.9 1070.7 916.65 1095.2 911.95 1120 908.4
L 1120 903.65
Q 1095.2 907.3 1070.7 912.1 1032.6 919.5 994 925.4 955.8 931.25 916.15 931.95 877.95 932.45 840.6 925.9 802.5 919.3 766.3 908.9 754.55 905.6 742.55 902.9 715.7 896.75 687.75 893.7 647.5 889.5 608.4 895.55 584.25 899.3 560 902.9 Z"/>
</g>

<g id="Layer0_3_MEMBER_0_FILL">
<path fill="#D0F4F7" stroke="none" d="
M 560 560
L 0 560 0 1120 560 1120 560 560 Z"/>
</g>

<g id="Layer0_3_MEMBER_1_FILL">
<path fill="#DCFAFC" stroke="none" d="
M 48.75 770.8
Q 48.65 770.9 48.55 771.05 47.7 770.15 46.85 769.25 45.25 767.65 43.6 766.25 28.65 753.35 8.3 753.35 4 753.35 -0.1 753.95
L -0.1 1075 559.85 1075 559.9 753.7
Q 542.05 756.8 529.25 770.65 523.65 776.7 520.15 783.6 508.95 778.7 495.65 779.2 480.6 779.8 468.75 787.15 467.05 785.25 465.15 783.5 444.75 764.65 417 765.7 389.3 766.8 370.45 787.15 368 789.85 365.8 792.6 364.7 791.35 363.4 790.15 355.9 783.1 345.55 783.5 335.2 783.85 328.2 791.55 326.2 793.5 324.9 795.8 312.05 788.85 296.4 789.5 279.8 790.1 267.05 798.95 252.4 788.7 233.5 789.45 212.4 790.3 197.45 804.4
L 197.4 804.35
Q 180.45 788.8 157.3 789.65 149.85 789.95 143.1 791.95 138.95 778.25 127.6 767.75 123.65 764.1 119.35 761.35 105.3 752.3 87.6 753.05 64.45 753.95 48.75 770.8 Z"/>
</g>

<g id="Layer0_3_MEMBER_2_FILL">
<path fill="#E7FDFF" stroke="none" d="
M 560 801.95
Q 555.9 801.35 551.6 801.35 531.25 801.35 516.3 814.25 514.65 815.65 513.05 817.25 512.2 818.15 511.35 819.05 511.25 818.9 511.15 818.8 495.45 801.95 472.3 801.05 454.6 800.3 440.55 809.35 436.25 812.1 432.3 815.75 420.95 826.25 416.8 839.95 410.05 837.95 402.6 837.65 379.45 836.8 362.5 852.35
L 362.45 852.4
Q 347.5 838.3 326.4 837.45 307.5 836.7 292.85 846.95 280.1 838.1 263.5 837.5 247.85 836.85 235 843.8 233.7 841.5 231.7 839.55 224.7 831.85 214.35 831.5 204 831.1 196.5 838.15 195.2 839.35 194.1 840.6 191.9 837.85 189.45 835.15 170.6 814.8 142.9 813.7 115.15 812.65 94.75 831.5 92.85 833.25 91.15 835.15 79.3 827.8 64.25 827.2 50.95 826.7 39.75 831.6 36.25 824.7 30.65 818.65 17.85 804.8 0 801.7
L 0.05 976.95 560 976.95 560 801.95 Z"/>
</g>

<g id="Layer0_3_MEMBER_3_FILL">
<path fill="#C4EDF0" stroke="none" d="
M 560 915.05
Q 535.2 918.5 510.7 923.05 472.6 930.05 434 935.65 395.8 941.2 356.15 941.85 317.95 942.3 280.6 936.1 242.5 929.85 206.3 920.05 194.55 916.9 182.55 914.3 155.7 908.5 127.75 905.6 87.5 901.65 48.4 907.35 24.25 910.95 0 914.3
L 0 1120 560 1120 560 915.05 Z"/>
</g>

<g id="Layer0_3_MEMBER_4_FILL">
<path fill="#A0DB44" stroke="none" d="
M 560 915.05
Q 535.2 918.5 510.7 923.05 472.6 930.05 434 935.65 395.8 941.2 356.15 941.85 317.95 942.3 280.6 936.1 242.5 929.85 206.3 920.05 194.55 916.9 182.55 914.3 155.7 908.5 127.75 905.6 87.5 901.65 48.4 907.35 24.25 910.95 0 914.3
L 0 1120 560 1120 560 915.05 Z"/>

<path fill="#95CB41" stroke="none" d="
M 560 915.05
L 560 908.4
Q 535.2 911.95 510.7 916.65 472.6 923.9 434 929.65 395.8 935.4 356.15 936.1 317.95 936.55 280.6 930.15 242.5 923.7 206.3 913.55 194.55 910.3 182.55 907.65 155.7 901.65 127.75 898.65 87.5 894.55 48.4 900.45 24.25 904.15 0 907.65
L 0 914.3
Q 24.25 910.95 48.4 907.35 87.5 901.65 127.75 905.6 155.7 908.5 182.55 914.3 194.55 916.9 206.3 920.05 242.5 929.85 280.6 936.1 317.95 942.3 356.15 941.85 395.8 941.2 434 935.65 472.6 930.05 510.7 923.05 535.2 918.5 560 915.05 Z"/>

<path fill="#CAF38A" stroke="none" d="
M 560 908.4
L 560 903.65
Q 535.2 907.3 510.7 912.1 472.6 919.5 434 925.4 395.8 931.25 356.15 931.95 317.95 932.45 280.6 925.9 242.5 919.3 206.3 908.9 194.55 905.6 182.55 902.9 155.7 896.75 127.75 893.7 87.5 889.5 48.4 895.55 24.25 899.3 0 902.9
L 0 907.65
Q 24.25 904.15 48.4 900.45 87.5 894.55 127.75 898.65 155.7 901.65 182.55 907.65 194.55 910.3 206.3 913.55 242.5 923.7 280.6 930.15 317.95 936.55 356.15 936.1 395.8 935.4 434 929.65 472.6 923.9 510.7 916.65 535.2 911.95 560 908.4 Z"/>
</g>

<g id="Layer0_4_MEMBER_0_FILL">
<path fill="#D0F4F7" stroke="none" d="
M 0 0
L 0 560 560 560 560 0 0 0 Z"/>
</g>

<g id="Layer0_4_MEMBER_1_FILL">
<path fill="#DCFAFC" stroke="none" d="
M 468.75 227.15
Q 467.05 225.25 465.15 223.5 444.75 204.65 417 205.7 389.3 206.8 370.45 227.15 368 229.85 365.8 232.6 364.7 231.35 363.4 230.15 355.9 223.1 345.55 223.5 335.2 223.85 328.2 231.55 326.2 233.5 324.9 235.8 312.05 228.85 296.4 229.5 279.8 230.1 267.05 238.95 252.4 228.7 233.5 229.45 212.4 230.3 197.45 244.4
L 197.4 244.35
Q 180.45 228.8 157.3 229.65 149.85 229.95 143.1 231.95 138.95 218.25 127.6 207.75 123.65 204.1 119.35 201.35 105.3 192.3 87.6 193.05 64.45 193.95 48.75 210.8 48.65 210.9 48.55 211.05 47.7 210.15 46.85 209.25 45.25 207.65 43.6 206.25 28.65 193.35 8.3 193.35 4 193.35 -0.1 193.95
L -0.1 515 559.85 515 559.9 193.7
Q 542.05 196.8 529.25 210.65 523.65 216.7 520.15 223.6 508.95 218.7 495.65 219.2 480.6 219.8 468.75 227.15 Z"/>
</g>

<g id="Layer0_4_MEMBER_2_FILL">
<path fill="#E7FDFF" stroke="none" d="
M 432.3 255.75
Q 420.95 266.25 416.8 279.95 410.05 277.95 402.6 277.65 379.45 276.8 362.5 292.35
L 362.45 292.4
Q 347.5 278.3 326.4 277.45 307.5 276.7 292.85 286.95 280.1 278.1 263.5 277.5 247.85 276.85 235 283.8 233.7 281.5 231.7 279.55 224.7 271.85 214.35 271.5 204 271.1 196.5 278.15 195.2 279.35 194.1 280.6 191.9 277.85 189.45 275.15 170.6 254.8 142.9 253.7 115.15 252.65 94.75 271.5 92.85 273.25 91.15 275.15 79.3 267.8 64.25 267.2 50.95 266.7 39.75 271.6 36.25 264.7 30.65 258.65 17.85 244.8 0 241.7
L 0.05 416.95 560 416.95 560 241.95
Q 555.9 241.35 551.6 241.35 531.25 241.35 516.3 254.25 514.65 255.65 513.05 257.25 512.2 258.15 511.35 259.05 511.25 258.9 511.15 258.8 495.45 241.95 472.3 241.05 454.6 240.3 440.55 249.35 436.25 252.1 432.3 255.75 Z"/>
</g>

<g id="Layer0_4_MEMBER_3_FILL">
<path fill="#C4EDF0" stroke="none" d="
M 434 375.65
Q 395.8 381.2 356.15 381.85 317.95 382.3 280.6 376.1 242.5 369.85 206.3 360.05 194.55 356.9 182.55 354.3 155.7 348.5 127.75 345.6 87.5 341.65 48.4 347.35 24.25 350.95 0 354.3
L 0 560 560 560 560 355.05
Q 535.2 358.5 510.7 363.05 472.6 370.05 434 375.65 Z"/>
</g>

<g id="Layer0_5_MEMBER_0_FILL">
<path fill="#D0F4F7" stroke="none" d="
M 1120 560
L 1120 0 560 0 560 560 1120 560 Z"/>
</g>

<g id="Layer0_5_MEMBER_1_FILL">
<path fill="#DCFAFC" stroke="none" d="
M 1089.25 210.65
Q 1083.65 216.7 1080.15 223.6 1068.95 218.7 1055.65 219.2 1040.6 219.8 1028.75 227.15 1027.05 225.25 1025.15 223.5 1004.75 204.65 977 205.7 949.3 206.8 930.45 227.15 928 229.85 925.8 232.6 924.7 231.35 923.4 230.15 915.9 223.1 905.55 223.5 895.2 223.85 888.2 231.55 886.2 233.5 884.9 235.8 872.05 228.85 856.4 229.5 839.8 230.1 827.05 238.95 812.4 228.7 793.5 229.45 772.4 230.3 757.45 244.4
L 757.4 244.35
Q 740.45 228.8 717.3 229.65 709.85 229.95 703.1 231.95 698.95 218.25 687.6 207.75 683.65 204.1 679.35 201.35 665.3 192.3 647.6 193.05 624.45 193.95 608.75 210.8 608.65 210.9 608.55 211.05 607.7 210.15 606.85 209.25 605.25 207.65 603.6 206.25 588.65 193.35 568.3 193.35 564 193.35 559.9 193.95
L 559.9 515 1119.85 515 1119.9 193.7
Q 1102.05 196.8 1089.25 210.65 Z"/>
</g>

<g id="Layer0_5_MEMBER_2_FILL">
<path fill="#E7FDFF" stroke="none" d="
M 1120 241.95
Q 1115.9 241.35 1111.6 241.35 1091.25 241.35 1076.3 254.25 1074.65 255.65 1073.05 257.25 1072.2 258.15 1071.35 259.05 1071.25 258.9 1071.15 258.8 1055.45 241.95 1032.3 241.05 1014.6 240.3 1000.55 249.35 996.25 252.1 992.3 255.75 980.95 266.25 976.8 279.95 970.05 277.95 962.6 277.65 939.45 276.8 922.5 292.35
L 922.45 292.4
Q 907.5 278.3 886.4 277.45 867.5 276.7 852.85 286.95 840.1 278.1 823.5 277.5 807.85 276.85 795 283.8 793.7 281.5 791.7 279.55 784.7 271.85 774.35 271.5 764 271.1 756.5 278.15 755.2 279.35 754.1 280.6 751.9 277.85 749.45 275.15 730.6 254.8 702.9 253.7 675.15 252.65 654.75 271.5 652.85 273.25 651.15 275.15 639.3 267.8 624.25 267.2 610.95 266.7 599.75 271.6 596.25 264.7 590.65 258.65 577.85 244.8 560 241.7
L 560.05 416.95 1120 416.95 1120 241.95 Z"/>
</g>

<g id="Layer0_5_MEMBER_3_FILL">
<path fill="#C4EDF0" stroke="none" d="
M 1120 355.05
Q 1095.2 358.5 1070.7 363.05 1032.6 370.05 994 375.65 955.8 381.2 916.15 381.85 877.95 382.3 840.6 376.1 802.5 369.85 766.3 360.05 754.55 356.9 742.55 354.3 715.7 348.5 687.75 345.6 647.5 341.65 608.4 347.35 584.25 350.95 560 354.3
L 560 560 1120 560 1120 355.05 Z"/>
</g>

<g id="Layer0_5_MEMBER_4_FILL">
<path fill="#C4EDF0" stroke="none" d="
M 937.1 343.75
Q 937.05 341.85 935.7 340.5 934.3 339.15 932.35 339.15 930.35 339.15 929 340.5 927.65 341.85 927.6 343.75
L 927.6 353.8 927.45 353.8
Q 927.1 353.8 926.9 353.6
L 926.85 353.55
Q 926.6 353.3 926.6 353.1
L 926.6 346.15
Q 926.6 345 925.75 344.2 924.95 343.35 923.8 343.35 922.65 343.35 921.8 344.2 921 345 921 346.15
L 921 354.15
Q 921 356.65 922.75 358.55 922.9 358.7 923.05 358.8 924.85 360.55 927.45 360.55
L 927.6 360.55 927.6 393 937.1 393 937.1 366.1 937.4 366.1
Q 939.95 366.1 941.75 364.4 941.95 364.25 942.05 364.15 943.8 362.25 943.8 359.7
L 943.8 351.75
Q 943.8 350.6 943 349.75 942.15 348.95 941 348.95 939.85 348.95 939.05 349.75 938.25 350.6 938.25 351.75
L 938.25 358.7
Q 938.25 358.9 937.95 359.15
L 937.95 359.2
Q 937.7 359.4 937.4 359.4
L 937.1 359.4 937.1 343.75
M 682.35 287.9
Q 680.15 287.9 678.5 289.4 677 291.05 677 293.25
L 677 308.4
Q 677 313.3 680.3 316.9 680.5 317.1 680.9 317.4 684.35 320.65 689.2 320.65
L 689.8 320.65 689.8 349 707.95 349 707.95 310.05 708.2 310.05
Q 713.2 310.05 716.6 306.7 716.9 306.5 717.2 306.2 720.55 302.6 720.55 297.8
L 720.55 282.55
Q 720.55 280.35 719 278.8 717.4 277.2 715.2 277.2 713 277.2 711.45 278.8 709.85 280.35 709.85 282.55
L 709.85 295.8
Q 709.85 296.2 709.35 296.65
L 709.25 296.75
Q 708.9 297.15 708.2 297.15
L 707.95 297.15 707.95 277.95
Q 707.85 274.3 705.25 271.75 702.65 269.15 698.85 269.15 695.15 269.15 692.45 271.75 689.85 274.3 689.8 277.95
L 689.8 307.85 689.2 307.85
Q 688.65 307.85 688.15 307.45
L 688.15 307.35
Q 687.6 306.9 687.6 306.5
L 687.6 293.25
Q 687.6 291.05 686.05 289.4 684.5 287.9 682.35 287.9
M 1040.6 303.45
Q 1037.1 303.45 1034.6 305.9 1032.15 308.3 1032.05 311.7
L 1032.05 339.7 1031.55 339.7
Q 1030.95 339.7 1030.55 339.3
L 1030.5 339.25
Q 1030.05 338.8 1030.05 338.4
L 1030.05 325.95
Q 1030.05 323.9 1028.6 322.45
L 1028.55 322.45
Q 1027.1 320.95 1025.05 320.95 1023 320.95 1021.5 322.45 1020.05 323.9 1020.05 325.95
L 1020.05 340.25
Q 1020.05 344.75 1023.2 348.15 1023.4 348.4 1023.7 348.6 1026.95 351.7 1031.55 351.7
L 1032.05 351.7 1032.05 384.45 1049.05 384.45 1049.05 341.7 1049.35 341.7
Q 1053.95 341.7 1057.25 338.6 1057.5 338.4 1057.7 338.15 1060.85 334.75 1060.85 330.25
L 1060.85 315.95
Q 1060.85 313.9 1059.4 312.45 1057.9 310.95 1055.85 310.95 1053.8 310.95 1052.35 312.45 1050.85 313.9 1050.85 315.95
L 1050.85 328.4
Q 1050.85 328.8 1050.45 329.25
L 1050.35 329.3
Q 1049.95 329.7 1049.35 329.7
L 1049.05 329.7 1049.05 311.7
Q 1048.95 308.3 1046.6 305.9 1044.1 303.45 1040.6 303.45 Z"/>
</g>

<g id="Layer0_6_MEMBER_0_FILL">
<path fill="#D0F4F7" stroke="none" d="
M 1680 560
L 1680 0 1120 0 1120 560 1680 560 Z"/>
</g>

<g id="Layer0_6_MEMBER_1_FILL">
<path fill="#DCFAFC" stroke="none" d="
M 1649.25 210.65
Q 1643.65 216.7 1640.15 223.6 1628.95 218.7 1615.65 219.2 1600.6 219.8 1588.75 227.15 1587.05 225.25 1585.15 223.5 1564.75 204.65 1537 205.7 1509.3 206.8 1490.45 227.15 1488 229.85 1485.8 232.6 1484.7 231.35 1483.4 230.15 1475.9 223.1 1465.55 223.5 1455.2 223.85 1448.2 231.55 1446.2 233.5 1444.9 235.8 1432.05 228.85 1416.4 229.5 1399.8 230.1 1387.05 238.95 1372.4 228.7 1353.5 229.45 1332.4 230.3 1317.45 244.4
L 1317.4 244.35
Q 1300.45 228.8 1277.3 229.65 1269.85 229.95 1263.1 231.95 1258.95 218.25 1247.6 207.75 1243.65 204.1 1239.35 201.35 1225.3 192.3 1207.6 193.05 1184.45 193.95 1168.75 210.8 1168.65 210.9 1168.55 211.05 1167.7 210.15 1166.85 209.25 1165.25 207.65 1163.6 206.25 1148.65 193.35 1128.3 193.35 1124 193.35 1119.9 193.95
L 1119.9 515 1679.85 515 1679.9 193.7
Q 1662.05 196.8 1649.25 210.65 Z"/>
</g>

<g id="Layer0_6_MEMBER_2_FILL">
<path fill="#E7FDFF" stroke="none" d="
M 1680 241.95
Q 1675.9 241.35 1671.6 241.35 1651.25 241.35 1636.3 254.25 1634.65 255.65 1633.05 257.25 1632.2 258.15 1631.35 259.05 1631.25 258.9 1631.15 258.8 1615.45 241.95 1592.3 241.05 1574.6 240.3 1560.55 249.35 1556.25 252.1 1552.3 255.75 1540.95 266.25 1536.8 279.95 1530.05 277.95 1522.6 277.65 1499.45 276.8 1482.5 292.35
L 1482.45 292.4
Q 1467.5 278.3 1446.4 277.45 1427.5 276.7 1412.85 286.95 1400.1 278.1 1383.5 277.5 1367.85 276.85 1355 283.8 1353.7 281.5 1351.7 279.55 1344.7 271.85 1334.35 271.5 1324 271.1 1316.5 278.15 1315.2 279.35 1314.1 280.6 1311.9 277.85 1309.45 275.15 1290.6 254.8 1262.9 253.7 1235.15 252.65 1214.75 271.5 1212.85 273.25 1211.15 275.15 1199.3 267.8 1184.25 267.2 1170.95 266.7 1159.75 271.6 1156.25 264.7 1150.65 258.65 1137.85 244.8 1120 241.7
L 1120.05 416.95 1680 416.95 1680 241.95 Z"/>
</g>

<g id="Layer0_6_MEMBER_3_FILL">
<path fill="#C4EDF0" stroke="none" d="
M 1680 355.05
Q 1655.2 358.5 1630.7 363.05 1592.6 370.05 1554 375.65 1515.8 381.2 1476.15 381.85 1437.95 382.3 1400.6 376.1 1362.5 369.85 1326.3 360.05 1314.55 356.9 1302.55 354.3 1275.7 348.5 1247.75 345.6 1207.5 341.65 1168.4 347.35 1144.25 350.95 1120 354.3
L 1120 560 1680 560 1680 355.05 Z"/>
</g>

<g id="Layer0_6_MEMBER_4_FILL">
<path fill="#C4EDF0" stroke="none" d="
M 1568.45 275.8
Q 1568.2 267.5 1562.8 261.35
L 1562.75 261.3
Q 1562.15 260.6 1561.45 259.9 1554.4 252.95 1544.5 252.95
L 1544.45 252.95
Q 1534.55 252.95 1527.5 259.9 1521.75 265.6 1520.7 273.2 1520.5 274.6 1520.45 276.05
L 1520.45 398.95 1568.45 398.95 1568.45 276.65
Q 1568.45 276.5 1568.45 276.35
L 1568.45 275.8
M 1626.45 316.65
Q 1626.45 316.5 1626.45 316.35
L 1626.45 315.8
Q 1626.2 307.5 1620.8 301.35
L 1620.75 301.3
Q 1620.15 300.6 1619.45 299.9 1612.4 292.95 1602.5 292.95
L 1602.45 292.95
Q 1592.55 292.95 1585.5 299.9 1579.75 305.6 1578.7 313.2 1578.5 314.6 1578.45 316.05
L 1578.45 398.9 1626.45 398.9 1626.45 316.65 Z"/>
</g>

<g id="Layer0_6_MEMBER_5_FILL">
<path fill="#C4EDF0" stroke="none" d="
M 1193.85 316.95
Q 1187.45 316.95 1182.85 321.5 1179.1 325.2 1178.4 330.15 1178.3 331.05 1178.25 332
L 1178.25 385.9 1209.5 385.9 1209.5 332.4
Q 1209.5 332.3 1209.5 332.2
L 1209.5 331.85
Q 1209.3 326.45 1205.8 322.45
L 1205.8 322.4
Q 1205.4 321.95 1204.95 321.5 1200.35 316.95 1193.9 316.95
L 1193.85 316.95
M 1361.75 339.45
L 1361.75 339.4
Q 1361.35 338.95 1360.9 338.5 1356.3 333.95 1349.85 333.95
L 1349.8 333.95
Q 1343.4 333.95 1338.8 338.5 1335.05 342.2 1334.35 347.15 1334.25 348.05 1334.2 349
L 1334.2 402.9 1365.45 402.9 1365.45 349.4
Q 1365.45 349.3 1365.45 349.2
L 1365.45 348.85
Q 1365.25 343.45 1361.75 339.45
M 1323.15 289.45
Q 1318.55 284.95 1312.1 284.95 1305.65 284.95 1301.05 289.45 1297.3 293.15 1296.65 298.1 1296.5 299.05 1296.45 299.95
L 1296.45 379.95 1327.7 379.95 1327.7 300.35
Q 1327.7 300.25 1327.7 300.15
L 1327.7 299.8
Q 1327.55 294.4 1324 290.4
L 1324 290.35
Q 1323.6 289.9 1323.15 289.45 Z"/>
</g>

<g id="Layer0_7_MEMBER_0_FILL">
<path fill="#D0F4F7" stroke="none" d="
M 2240 560
L 2240 0 1680 0 1680 560 2240 560 Z"/>
</g>

<g id="Layer0_7_MEMBER_1_FILL">
<path fill="#DCFAFC" stroke="none" d="
M 2045.8 232.6
Q 2044.7 231.35 2043.4 230.15 2035.9 223.1 2025.55 223.5 2015.2 223.85 2008.2 231.55 2006.2 233.5 2004.9 235.8 1992.05 228.85 1976.4 229.5 1959.8 230.1 1947.05 238.95 1932.4 228.7 1913.5 229.45 1892.4 230.3 1877.45 244.4
L 1877.4 244.35
Q 1860.45 228.8 1837.3 229.65 1829.85 229.95 1823.1 231.95 1818.95 218.25 1807.6 207.75 1803.65 204.1 1799.35 201.35 1785.3 192.3 1767.6 193.05 1744.45 193.95 1728.75 210.8 1728.65 210.9 1728.55 211.05 1727.7 210.15 1726.85 209.25 1725.25 207.65 1723.6 206.25 1708.65 193.35 1688.3 193.35 1684 193.35 1679.9 193.95
L 1679.9 515 2239.85 515 2239.9 193.7
Q 2222.05 196.8 2209.25 210.65 2203.65 216.7 2200.15 223.6 2188.95 218.7 2175.65 219.2 2160.6 219.8 2148.75 227.15 2147.05 225.25 2145.15 223.5 2124.75 204.65 2097 205.7 2069.3 206.8 2050.45 227.15 2048 229.85 2045.8 232.6 Z"/>
</g>

<g id="Layer0_7_MEMBER_2_FILL">
<path fill="#E7FDFF" stroke="none" d="
M 2042.5 292.35
L 2042.45 292.4
Q 2027.5 278.3 2006.4 277.45 1987.5 276.7 1972.85 286.95 1960.1 278.1 1943.5 277.5 1927.85 276.85 1915 283.8 1913.7 281.5 1911.7 279.55 1904.7 271.85 1894.35 271.5 1884 271.1 1876.5 278.15 1875.2 279.35 1874.1 280.6 1871.9 277.85 1869.45 275.15 1850.6 254.8 1822.9 253.7 1795.15 252.65 1774.75 271.5 1772.85 273.25 1771.15 275.15 1759.3 267.8 1744.25 267.2 1730.95 266.7 1719.75 271.6 1716.25 264.7 1710.65 258.65 1697.85 244.8 1680 241.7
L 1680.05 416.95 2240 416.95 2240 241.95
Q 2235.9 241.35 2231.6 241.35 2211.25 241.35 2196.3 254.25 2194.65 255.65 2193.05 257.25 2192.2 258.15 2191.35 259.05 2191.25 258.9 2191.15 258.8 2175.45 241.95 2152.3 241.05 2134.6 240.3 2120.55 249.35 2116.25 252.1 2112.3 255.75 2100.95 266.25 2096.8 279.95 2090.05 277.95 2082.6 277.65 2059.45 276.8 2042.5 292.35 Z"/>
</g>

<g id="Layer0_7_MEMBER_3_FILL">
<path fill="#C4EDF0" stroke="none" d="
M 2036.15 381.85
Q 1997.95 382.3 1960.6 376.1 1922.5 369.85 1886.3 360.05 1874.55 356.9 1862.55 354.3 1835.7 348.5 1807.75 345.6 1767.5 341.65 1728.4 347.35 1704.25 350.95 1680 354.3
L 1680 560 2240 560 2240 355.05
Q 2215.2 358.5 2190.7 363.05 2152.6 370.05 2114 375.65 2075.8 381.2 2036.15 381.85 Z"/>
</g>

<g id="Layer0_7_MEMBER_4_FILL">
<path fill="#C4EDF0" stroke="none" d="
M 2171.5 348.6
Q 2171 350.1 2170.95 351.7
L 2170.95 351.75
Q 2170.95 352 2171.05 352.25 2171.7 353.8 2176.65 354.9 2180.1 355.7 2184.35 356
L 2184.35 367.9 2196.55 367.9 2196.55 356
Q 2200.85 355.7 2204.25 354.9 2209.2 353.8 2209.85 352.25 2209.95 352 2209.95 351.75
L 2209.95 351.7
Q 2209.9 350.1 2209.45 348.6 2208.2 344.9 2204.25 342 2198.55 337.9 2190.45 337.9 2182.4 337.9 2176.65 342 2172.7 344.9 2171.5 348.6 Z"/>
</g>

<g id="Layer0_7_MEMBER_5_FILL">
<path fill="#C4EDF0" stroke="none" d="
M 2172.6 304.1
Q 2164.3 298.1 2152.45 298.1 2140.65 298.1 2132.25 304.1 2126.5 308.35 2124.75 313.75 2124 315.95 2123.95 318.25
L 2123.95 318.35
Q 2123.95 318.7 2124.1 319.05 2125.05 321.35 2132.25 322.95 2137.3 324.1 2143.5 324.55
L 2143.5 432.95 2161.35 432.95 2161.35 324.55
Q 2167.65 324.1 2172.6 322.95 2179.85 321.35 2180.8 319.05 2180.95 318.7 2180.95 318.35
L 2180.95 318.25
Q 2180.85 315.95 2180.2 313.75 2178.4 308.35 2172.6 304.1 Z"/>
</g>

<g id="Layer0_7_MEMBER_6_FILL">
<path fill="#C4EDF0" stroke="none" d="
M 1877.2 263.75
Q 1875.4 258.35 1869.6 254.1 1861.3 248.1 1849.45 248.1 1837.65 248.1 1829.25 254.1 1823.5 258.35 1821.75 263.75 1821 265.95 1820.95 268.25
L 1820.95 268.35
Q 1820.95 268.7 1821.1 269.05 1822.05 271.35 1829.25 272.95 1834.3 274.1 1840.5 274.55
L 1840.5 382.95 1858.35 382.95 1858.35 274.55
Q 1864.65 274.1 1869.6 272.95 1876.85 271.35 1877.8 269.05 1877.95 268.7 1877.95 268.35
L 1877.95 268.25
Q 1877.85 265.95 1877.2 263.75 Z"/>
</g>

<g id="Layer0_7_MEMBER_7_FILL">
<path fill="#C4EDF0" stroke="none" d="
M 1779.65 292.1
Q 1771.35 286.1 1759.5 286.1 1747.7 286.1 1739.3 292.1 1733.55 296.35 1731.8 301.75 1731.05 303.95 1731 306.25
L 1731 306.35
Q 1731 306.7 1731.15 307.05 1732.1 309.35 1739.3 310.95 1744.35 312.1 1750.55 312.55
L 1750.55 420.95 1768.4 420.95 1768.4 312.55
Q 1774.7 312.1 1779.65 310.95 1786.9 309.35 1787.85 307.05 1788 306.7 1788 306.35
L 1788 306.25
Q 1787.9 303.95 1787.25 301.75 1785.45 296.35 1779.65 292.1 Z"/>
</g>
</defs>

<g transform="matrix( 1, 0, 0, 1, 0,0) ">
<use xlink:href="#Layer0_0_MEMBER_0_FILL"/>
</g>

<g transform="matrix( 1, 0, 0, 1, 0,0) ">
<use xlink:href="#Layer0_0_MEMBER_1_FILL"/>
</g>

<g transform="matrix( 1, 0, 0, 1, 0,0) ">
<use xlink:href="#Layer0_0_MEMBER_2_FILL"/>
</g>

<g transform="matrix( 1, 0, 0, 1, 0,0) ">
<use xlink:href="#Layer0_0_MEMBER_3_FILL"/>
</g>

<g transform="matrix( 1, 0, 0, 1, 0,0) ">
<use xlink:href="#Layer0_0_MEMBER_4_FILL"/>
</g>

<g transform="matrix( 1, 0, 0, 1, 0,0) ">
<use xlink:href="#Layer0_1_MEMBER_0_FILL"/>
</g>

<g transform="matrix( 1, 0, 0, 1, 0,0) ">
<use xlink:href="#Layer0_1_MEMBER_1_FILL"/>
</g>

<g transform="matrix( 1, 0, 0, 1, 0,0) ">
<use xlink:href="#Layer0_1_MEMBER_2_FILL"/>
</g>

<g transform="matrix( 1, 0, 0, 1, 0,0) ">
<use xlink:href="#Layer0_1_MEMBER_3_FILL"/>
</g>

<g transform="matrix( 1, 0, 0, 1, 0,0) ">
<use xlink:href="#Layer0_1_MEMBER_4_FILL"/>
</g>

<g transform="matrix( 1, 0, 0, 1, 0,0) ">
<use xlink:href="#Layer0_2_MEMBER_0_FILL"/>
</g>

<g transform="matrix( 1, 0, 0, 1, 0,0) ">
<use xlink:href="#Layer0_2_MEMBER_1_FILL"/>
</g>

<g transform="matrix( 1, 0, 0, 1, 0,0) ">
<use xlink:href="#Layer0_2_MEMBER_2_FILL"/>
</g>

<g transform="matrix( 1, 0, 0, 1, 0,0) ">
<use xlink:href="#Layer0_2_MEMBER_3_FILL"/>
</g>

<g transform="matrix( 1, 0, 0, 1, 0,0) ">
<use xlink:href="#Layer0_2_MEMBER_4_FILL"/>
</g>

<g transform="matrix( 1, 0, 0, 1, 0,0) ">
<use xlink:href="#Layer0_2_MEMBER_5_FILL"/>
</g>

<g transform="matrix( 1, 0, 0, 1, 0,0) ">
<use xlink:href="#Layer0_3_MEMBER_0_FILL"/>
</g>

<g transform="matrix( 1, 0, 0, 1, 0,0) ">
<use xlink:href="#Layer0_3_MEMBER_1_FILL"/>
</g>

<g transform="matrix( 1, 0, 0, 1, 0,0) ">
<use xlink:href="#Layer0_3_MEMBER_2_FILL"/>
</g>

<g transform="matrix( 1, 0, 0, 1, 0,0) ">
<use xlink:href="#Layer0_3_MEMBER_3_FILL"/>
</g>

<g transform="matrix( 1, 0, 0, 1, 0,0) ">
<use xlink:href="#Layer0_3_MEMBER_4_FILL"/>
</g>

<g transform="matrix( 1, 0, 0, 1, 0,0) ">
<use xlink:href="#Layer0_4_MEMBER_0_FILL"/>
</g>

<g transform="matrix( 1, 0, 0, 1, 0,0) ">
<use xlink:href="#Layer0_4_MEMBER_1_FILL"/>
</g>

<g transform="matrix( 1, 0, 0, 1, 0,0) ">
<use xlink:href="#Layer0_4_MEMBER_2_FILL"/>
</g>

<g transform="matrix( 1, 0, 0, 1, 0,0) ">
<use xlink:href="#Layer0_4_MEMBER_3_FILL"/>
</g>

<g transform="matrix( 1, 0, 0, 1, 0,0) ">
<use xlink:href="#Layer0_5_MEMBER_0_FILL"/>
</g>

<g transform="matrix( 1, 0, 0, 1, 0,0) ">
<use xlink:href="#Layer0_5_MEMBER_1_FILL"/>
</g>

<g transform="matrix( 1, 0, 0, 1, 0,0) ">
<use xlink:href="#Layer0_5_MEMBER_2_FILL"/>
</g>

<g transform="matrix( 1, 0, 0, 1, 0,0) ">
<use xlink:href="#Layer0_5_MEMBER_3_FILL"/>
</g>

<g transform="matrix( 1, 0, 0, 1, 0,0) ">
<use xlink:href="#Layer0_5_MEMBER_4_FILL"/>
</g>

<g transform="matrix( 1, 0, 0, 1, 0,0) ">
<use xlink:href="#Layer0_6_MEMBER_0_FILL"/>
</g>

<g transform="matrix( 1, 0, 0, 1, 0,0) ">
<use xlink:href="#Layer0_6_MEMBER_1_FILL"/>
</g>

<g transform="matrix( 1, 0, 0, 1, 0,0) ">
<use xlink:href="#Layer0_6_MEMBER_2_FILL"/>
</g>

<g transform="matrix( 1, 0, 0, 1, 0,0) ">
<use xlink:href="#Layer0_6_MEMBER_3_FILL"/>
</g>

<g transform="matrix( 1, 0, 0, 1, 0,0) ">
<use xlink:href="#Layer0_6_MEMBER_4_FILL"/>
</g>

<g transform="matrix( 1, 0, 0, 1, 0,0) ">
<use xlink:href="#Layer0_6_MEMBER_5_FILL"/>
</g>

<g transform="matrix( 1, 0, 0, 1, 0,0) ">
<use xlink:href="#Layer0_7_MEMBER_0_FILL"/>
</g>

<g transform="matrix( 1, 0, 0, 1, 0,0) ">
<use xlink:href="#Layer0_7_MEMBER_1_FILL"/>
</g>

<g transform="matrix( 1, 0, 0, 1, 0,0) ">
<use xlink:href="#Layer0_7_MEMBER_2_FILL"/>
</g>

<g transform="matrix( 1, 0, 0, 1, 0,0) ">
<use xlink:href="#Layer0_7_MEMBER_3_FILL"/>
</g>

<g transform="matrix( 1, 0, 0, 1, 0,0) ">
<use xlink:href="#Layer0_7_MEMBER_4_FILL"/>
</g>

<g transform="matrix( 1, 0, 0, 1, 0,0) ">
<use xlink:href="#Layer0_7_MEMBER_5_FILL"/>
</g>

<g transform="matrix( 1, 0, 0, 1, 0,0) ">
<use xlink:href="#Layer0_7_MEMBER_6_FILL"/>
</g>

<g transform="matrix( 1, 0, 0, 1, 0,0) ">
<use xlink:href="#Layer0_7_MEMBER_7_FILL"/>
</g>
</svg>
